<svg width="2113" height="351" viewBox="0 0 2113 351" fill="none" xmlns="http://www.w3.org/2000/svg">
<path d="M120.64 96.3945L123.452 154.578H117.476C115.718 150.477 113.433 145.848 110.62 140.691C107.925 135.535 104.644 130.672 100.777 126.102C96.9094 121.531 92.3977 117.723 87.2415 114.676C82.2024 111.512 76.5188 109.93 70.1907 109.93C64.5657 109.93 60.1711 111.453 57.0071 114.5C53.843 117.547 52.261 121.473 52.261 126.277C52.261 130.496 54.2532 134.656 58.2375 138.758C62.2219 142.742 67.1438 146.844 73.0032 151.062C78.9797 155.281 85.425 159.734 92.3391 164.422C99.3704 169.109 105.816 174.207 111.675 179.715C117.652 185.105 122.632 191.023 126.616 197.469C130.601 203.914 132.593 211.004 132.593 218.738C132.593 227.293 131.187 235.145 128.374 242.293C125.562 249.441 121.636 255.652 116.597 260.926C111.675 266.082 105.757 270.125 98.843 273.055C92.0461 275.984 84.6633 277.449 76.6946 277.449C72.593 277.449 68.55 276.922 64.5657 275.867C60.5813 274.93 56.7727 273.816 53.1399 272.527C49.5071 271.355 46.2258 270.242 43.2961 269.188C40.3665 268.133 37.9641 267.605 36.0891 267.605C33.511 267.605 31.5188 268.543 30.1125 270.418C28.7063 272.176 27.4758 274.168 26.4211 276.395H20.2688L17.2805 215.047H23.7844C25.3079 221.258 27.7688 227.293 31.1672 233.152C34.5657 239.012 38.4915 244.168 42.9446 248.621C47.5149 253.074 52.4368 256.648 57.7102 259.344C62.9836 262.039 68.2571 263.387 73.5305 263.387C78.9211 263.387 83.55 261.688 87.4172 258.289C91.2844 254.773 93.218 249.5 93.218 242.469C93.218 237.781 91.2844 233.445 87.4172 229.461C83.55 225.359 78.7454 221.258 73.0032 217.156C67.261 213.055 60.9915 208.777 54.1946 204.324C47.3977 199.871 41.1282 194.949 35.386 189.559C29.6438 184.168 24.8391 178.133 20.9719 171.453C17.1047 164.773 15.1711 157.156 15.1711 148.602C15.1711 140.398 16.5188 133.074 19.2141 126.629C21.9094 120.066 25.6008 114.559 30.2883 110.105C35.093 105.535 40.718 102.078 47.1633 99.7344C53.6086 97.2734 60.5813 96.043 68.0813 96.043C72.886 96.043 77.0461 96.5703 80.5618 97.625C84.0774 98.5625 87.1243 99.6172 89.7024 100.789C92.3977 101.844 94.7415 102.898 96.7336 103.953C98.843 104.891 100.835 105.359 102.71 105.359C106.109 105.359 108.628 104.363 110.269 102.371C112.027 100.379 113.433 98.3867 114.488 96.3945H120.64ZM294.6 186.746C294.6 198.582 292.784 209.949 289.151 220.848C285.635 231.746 280.42 241.414 273.506 249.852C266.709 258.172 258.331 264.852 248.37 269.891C238.409 274.93 227.041 277.449 214.268 277.449C201.495 277.449 190.127 274.93 180.166 269.891C170.323 264.852 161.944 258.172 155.03 249.852C148.233 241.414 143.018 231.746 139.385 220.848C135.87 209.949 134.112 198.582 134.112 186.746C134.112 174.91 135.87 163.543 139.385 152.645C143.018 141.746 148.233 132.137 155.03 123.816C161.944 115.379 170.323 108.641 180.166 103.602C190.127 98.5625 201.495 96.043 214.268 96.043C227.041 96.043 238.409 98.5625 248.37 103.602C258.331 108.641 266.709 115.379 273.506 123.816C280.42 132.137 285.635 141.746 289.151 152.645C292.784 163.543 294.6 174.91 294.6 186.746ZM240.987 186.746C240.987 172.684 240.459 160.73 239.405 150.887C238.467 141.043 236.885 133.016 234.659 126.805C232.549 120.477 229.795 115.906 226.397 113.094C222.998 110.281 218.956 108.875 214.268 108.875C209.581 108.875 205.538 110.281 202.139 113.094C198.858 115.906 196.104 120.477 193.877 126.805C191.768 133.016 190.186 141.043 189.131 150.887C188.194 160.73 187.725 172.684 187.725 186.746C187.725 200.809 188.194 212.762 189.131 222.605C190.186 232.449 191.768 240.477 193.877 246.688C196.104 252.898 198.858 257.41 202.139 260.223C205.538 263.035 209.581 264.441 214.268 264.441C218.956 264.441 222.998 263.035 226.397 260.223C229.795 257.41 232.549 252.898 234.659 246.688C236.885 240.477 238.467 232.449 239.405 222.605C240.459 212.762 240.987 200.809 240.987 186.746ZM393.853 272V265.145C397.252 264.676 400.064 263.855 402.291 262.684C404.517 261.512 406.216 259.93 407.388 257.938C408.677 255.945 409.556 253.367 410.025 250.203C410.494 247.039 410.728 243.172 410.728 238.602V144.559C410.728 137.527 409.439 131.844 406.861 127.508C404.4 123.055 400.181 120.828 394.205 120.828C390.806 120.828 387.701 121.531 384.888 122.938C382.076 124.344 379.439 126.16 376.978 128.387C374.634 130.496 372.466 132.957 370.474 135.77C368.482 138.465 366.666 141.16 365.025 143.855V238.602C365.025 243.172 365.259 247.039 365.728 250.203C366.197 253.367 367.076 255.945 368.365 257.938C369.654 259.93 371.412 261.512 373.638 262.684C375.865 263.855 378.736 264.676 382.252 265.145V272H295.591V265.145C299.576 264.676 302.798 264.031 305.259 263.211C307.72 262.273 309.537 260.867 310.709 258.992C311.998 257.117 312.818 254.539 313.17 251.258C313.638 247.977 313.873 243.758 313.873 238.602V136.297C313.873 130.555 313.638 125.926 313.17 122.41C312.701 118.895 311.822 116.141 310.533 114.148C309.244 112.156 307.369 110.75 304.908 109.93C302.564 109.109 299.459 108.406 295.591 107.82V101.316H365.025V123.289C367.72 120.477 370.767 117.488 374.166 114.324C377.564 111.043 381.314 108.055 385.416 105.359C389.634 102.664 394.146 100.438 398.951 98.6797C403.756 96.9219 408.912 96.043 414.42 96.043C422.506 96.043 429.537 97.4492 435.513 100.262C441.49 102.957 446.412 106.883 450.279 112.039C454.146 117.195 457.017 123.465 458.892 130.848C460.884 138.113 461.881 146.258 461.881 155.281V238.602C461.881 243.172 462.056 247.039 462.408 250.203C462.759 253.367 463.521 256.004 464.693 258.113C465.982 260.105 467.857 261.688 470.318 262.859C472.779 263.914 476.06 264.676 480.162 265.145V272H393.853ZM639.708 186.746C639.708 198.582 637.891 209.949 634.259 220.848C630.743 231.746 625.528 241.414 618.614 249.852C611.817 258.172 603.438 264.852 593.477 269.891C583.516 274.93 572.149 277.449 559.376 277.449C546.602 277.449 535.235 274.93 525.274 269.891C515.431 264.852 507.052 258.172 500.138 249.852C493.341 241.414 488.126 231.746 484.493 220.848C480.977 209.949 479.22 198.582 479.22 186.746C479.22 174.91 480.977 163.543 484.493 152.645C488.126 141.746 493.341 132.137 500.138 123.816C507.052 115.379 515.431 108.641 525.274 103.602C535.235 98.5625 546.602 96.043 559.376 96.043C572.149 96.043 583.516 98.5625 593.477 103.602C603.438 108.641 611.817 115.379 618.614 123.816C625.528 132.137 630.743 141.746 634.259 152.645C637.891 163.543 639.708 174.91 639.708 186.746ZM586.095 186.746C586.095 172.684 585.567 160.73 584.513 150.887C583.575 141.043 581.993 133.016 579.766 126.805C577.657 120.477 574.903 115.906 571.505 113.094C568.106 110.281 564.063 108.875 559.376 108.875C554.688 108.875 550.645 110.281 547.247 113.094C543.966 115.906 541.212 120.477 538.985 126.805C536.876 133.016 535.294 141.043 534.239 150.887C533.302 160.73 532.833 172.684 532.833 186.746C532.833 200.809 533.302 212.762 534.239 222.605C535.294 232.449 536.876 240.477 538.985 246.688C541.212 252.898 543.966 257.41 547.247 260.223C550.645 263.035 554.688 264.441 559.376 264.441C564.063 264.441 568.106 263.035 571.505 260.223C574.903 257.41 577.657 252.898 579.766 246.688C581.993 240.477 583.575 232.449 584.513 222.605C585.567 212.762 586.095 200.809 586.095 186.746ZM711.539 101.316V139.812C714.82 134.891 718.277 129.852 721.91 124.695C725.66 119.539 729.703 114.852 734.039 110.633C738.492 106.297 743.356 102.781 748.629 100.086C753.902 97.3906 759.762 96.043 766.207 96.043C773.59 96.043 779.156 98.4453 782.906 103.25C786.656 107.938 788.531 113.797 788.531 120.828C788.531 124.344 788.063 127.625 787.125 130.672C786.188 133.719 784.84 136.414 783.082 138.758C781.324 140.984 779.156 142.742 776.578 144.031C774.117 145.32 771.305 145.965 768.141 145.965C763.922 145.965 760.406 145.203 757.594 143.68C754.781 142.156 752.379 140.516 750.387 138.758C748.395 137 746.52 135.359 744.762 133.836C743.004 132.312 741.07 131.551 738.961 131.551C734.742 131.551 730.934 133.367 727.535 137C724.137 140.516 721.207 145.145 718.746 150.887C716.402 156.512 714.586 162.84 713.297 169.871C712.125 176.902 711.539 183.816 711.539 190.613V238.602C711.539 243.172 711.656 247.098 711.891 250.379C712.125 253.66 712.945 256.355 714.352 258.465C715.758 260.574 717.926 262.215 720.856 263.387C723.902 264.441 728.238 265.027 733.863 265.145V272H641.754V265.145C645.738 265.027 648.961 264.441 651.422 263.387C653.883 262.215 655.758 260.574 657.047 258.465C658.453 256.355 659.332 253.66 659.684 250.379C660.152 247.098 660.387 243.172 660.387 238.602V136.297C660.387 130.555 660.211 125.926 659.859 122.41C659.508 118.895 658.688 116.141 657.398 114.148C656.109 112.156 654.234 110.75 651.773 109.93C649.313 109.109 645.973 108.406 641.754 107.82V101.316H711.539ZM895.87 272V250.027C893.175 252.957 890.07 256.062 886.554 259.344C883.156 262.508 879.406 265.438 875.304 268.133C871.202 270.828 866.749 273.055 861.945 274.812C857.14 276.57 851.984 277.449 846.476 277.449C838.39 277.449 831.359 276.043 825.382 273.23C819.406 270.535 814.484 266.609 810.616 261.453C806.749 256.297 803.82 250.086 801.827 242.82C799.952 235.438 799.015 227.176 799.015 218.035V134.891C799.015 130.32 798.839 126.453 798.488 123.289C798.136 120.008 797.316 117.371 796.027 115.379C794.855 113.27 793.038 111.688 790.577 110.633C788.116 109.461 784.835 108.641 780.734 108.172V101.316H850.167V228.758C850.167 235.789 851.398 241.531 853.859 245.984C856.437 250.32 860.714 252.488 866.691 252.488C869.972 252.488 873.019 251.785 875.831 250.379C878.761 248.855 881.398 246.98 883.741 244.754C886.202 242.41 888.429 239.832 890.421 237.02C892.413 234.207 894.23 231.453 895.87 228.758V134.891C895.87 130.32 895.636 126.453 895.167 123.289C894.698 120.125 893.761 117.547 892.355 115.555C891.066 113.562 889.191 111.98 886.73 110.809C884.269 109.637 881.046 108.758 877.062 108.172V101.316H947.023V237.02C947.023 242.762 947.257 247.391 947.726 250.906C948.195 254.305 949.073 257 950.363 258.992C951.652 260.867 953.468 262.273 955.812 263.211C958.273 264.031 961.437 264.676 965.304 265.145V272H895.87ZM1167.74 272V265.145C1170.79 264.676 1173.37 263.855 1175.48 262.684C1177.58 261.512 1179.28 259.93 1180.57 257.938C1181.98 255.945 1182.98 253.367 1183.56 250.203C1184.26 247.039 1184.62 243.172 1184.62 238.602V144.559C1184.62 137.527 1183.33 131.727 1180.75 127.156C1178.17 122.469 1173.95 120.125 1168.09 120.125C1164.69 120.125 1161.47 120.77 1158.42 122.059C1155.38 123.348 1152.45 125.047 1149.64 127.156C1146.94 129.266 1144.36 131.727 1141.9 134.539C1139.56 137.352 1137.45 140.223 1135.57 143.152V238.602C1135.57 243.406 1135.81 247.449 1136.28 250.73C1136.74 253.895 1137.62 256.473 1138.91 258.465C1140.32 260.457 1142.25 261.98 1144.71 263.035C1147.29 263.973 1150.63 264.676 1154.73 265.145V272H1066.14V265.145C1069.77 264.676 1072.76 263.973 1075.1 263.035C1077.56 262.098 1079.5 260.691 1080.9 258.816C1082.31 256.824 1083.25 254.246 1083.72 251.082C1084.3 247.801 1084.6 243.641 1084.6 238.602V144.559C1084.6 137.527 1083.13 131.668 1080.2 126.98C1077.27 122.176 1073.17 119.773 1067.9 119.773C1061.33 119.773 1055.53 121.883 1050.49 126.102C1045.46 130.32 1040.36 136.121 1035.2 143.504V238.602C1035.2 243.172 1035.38 247.039 1035.73 250.203C1036.2 253.367 1037.08 256.004 1038.37 258.113C1039.65 260.105 1041.47 261.688 1043.81 262.859C1046.28 263.914 1049.56 264.676 1053.66 265.145V272H965.768V265.145C969.752 264.676 972.975 264.031 975.436 263.211C977.897 262.273 979.713 260.867 980.885 258.992C982.174 257.117 982.995 254.539 983.346 251.258C983.815 247.977 984.049 243.758 984.049 238.602V136.297C984.049 130.555 983.815 125.926 983.346 122.41C982.877 118.895 981.998 116.141 980.709 114.148C979.42 112.156 977.545 110.75 975.084 109.93C972.741 109.109 969.635 108.406 965.768 107.82V101.316H1035.2V123.992C1039.65 119.188 1043.87 115.027 1047.86 111.512C1051.96 107.996 1056.06 105.125 1060.16 102.898C1064.26 100.555 1068.54 98.8555 1072.99 97.8008C1077.56 96.6289 1082.6 96.043 1088.11 96.043C1094.56 96.043 1100.18 96.8633 1104.99 98.5039C1109.91 100.027 1114.13 102.195 1117.64 105.008C1121.16 107.82 1124.09 111.16 1126.43 115.027C1128.78 118.777 1130.77 122.879 1132.41 127.332C1140.14 118.074 1148.64 110.574 1157.9 104.832C1167.15 98.9727 1177.23 96.043 1188.13 96.043C1196.57 96.043 1203.78 97.4492 1209.75 100.262C1215.85 102.957 1220.83 106.883 1224.69 112.039C1228.56 117.195 1231.37 123.465 1233.13 130.848C1234.89 138.113 1235.77 146.258 1235.77 155.281V238.602C1235.77 243.172 1235.94 247.039 1236.3 250.203C1236.65 253.367 1237.41 256.004 1238.58 258.113C1239.87 260.105 1241.74 261.688 1244.21 262.859C1246.67 263.914 1249.95 264.676 1254.05 265.145V272H1167.74ZM1312.52 151.766C1318.61 152.703 1324.06 153.289 1328.87 153.523C1333.67 153.758 1337.78 153.875 1341.17 153.875C1347.27 153.875 1353.07 152.703 1358.58 150.359C1364.08 147.898 1368.83 144.441 1372.81 139.988C1376.92 135.535 1380.14 130.203 1382.48 123.992C1384.94 117.781 1386.17 110.809 1386.17 103.074C1386.17 95.8086 1385.12 88.8359 1383.01 82.1562C1380.9 75.3594 1377.74 69.4414 1373.52 64.4023C1369.3 59.2461 1364.03 55.1445 1357.7 52.0977C1351.37 49.0508 1343.99 47.5273 1335.55 47.5273C1332.74 47.5273 1329.4 47.8789 1325.53 48.582C1321.78 49.168 1317.44 49.9297 1312.52 50.8672V151.766ZM1346.8 272H1245.02V265.32H1253.63C1258.56 265.32 1262.83 264.617 1266.47 263.211C1270.22 261.688 1273.09 259.227 1275.08 255.828C1276.13 254.07 1276.95 251.023 1277.54 246.688C1278.24 242.352 1278.6 236.668 1278.6 229.637V75.6523C1278.6 68.2695 1278.24 62.2344 1277.54 57.5469C1276.84 52.8594 1275.67 49.5195 1274.03 47.5273C1269.81 42.4883 1263.01 39.9688 1253.63 39.9688H1245.02V33.6406H1331.86C1337.95 33.6406 1344.04 33.875 1350.14 34.3438C1356.35 34.6953 1362.38 35.3984 1368.24 36.4531C1374.1 37.5078 1379.61 39.0313 1384.77 41.0234C1390.04 42.8984 1394.79 45.418 1399.01 48.582C1402.87 51.3945 1406.45 54.5 1409.73 57.8984C1413.13 61.1797 1416.06 64.8711 1418.52 68.9727C1420.98 73.0742 1422.91 77.6445 1424.32 82.6836C1425.72 87.7227 1426.43 93.2891 1426.43 99.3828C1426.43 108.523 1425.02 117.078 1422.21 125.047C1419.4 133.016 1414.71 139.988 1408.15 145.965C1401.7 151.941 1393.15 156.688 1382.48 160.203C1371.82 163.602 1358.63 165.301 1342.93 165.301C1340 165.301 1337.42 165.301 1335.2 165.301C1332.97 165.184 1330.74 165.066 1328.52 164.949C1326.29 164.832 1323.89 164.656 1321.31 164.422C1318.85 164.188 1315.92 163.895 1312.52 163.543V229.637C1312.52 237.137 1312.87 243.172 1313.58 247.742C1314.4 252.312 1315.74 255.535 1317.62 257.41C1320.08 259.871 1322.95 261.805 1326.23 263.211C1329.51 264.617 1333.38 265.32 1337.83 265.32H1346.8V272ZM1472.07 106.414V142.449C1485.43 118.426 1499.31 106.414 1513.73 106.414C1516.89 106.414 1519.88 106.883 1522.69 107.82C1525.5 108.758 1527.91 110.105 1529.9 111.863C1532.01 113.504 1533.65 115.555 1534.82 118.016C1535.99 120.359 1536.58 122.938 1536.58 125.75C1536.58 127.859 1536.17 129.91 1535.35 131.902C1534.53 133.895 1533.36 135.652 1531.83 137.176C1530.43 138.582 1528.73 139.754 1526.74 140.691C1524.86 141.629 1522.81 142.098 1520.58 142.098C1517.65 142.098 1515.02 141.453 1512.67 140.164C1510.45 138.875 1508.4 137.469 1506.52 135.945C1504.65 134.305 1502.83 132.84 1501.07 131.551C1499.31 130.262 1497.5 129.617 1495.62 129.617C1492.69 129.617 1489.12 132.078 1484.9 137C1480.8 141.805 1476.52 148.484 1472.07 157.039V234.559C1472.07 239.715 1472.48 244.227 1473.3 248.094C1474.12 251.844 1475.58 255.008 1477.69 257.586C1479.8 260.164 1482.67 262.098 1486.31 263.387C1490.06 264.676 1494.8 265.32 1500.54 265.32V272H1416.87V265.32C1421.91 265.32 1426.07 265.086 1429.35 264.617C1432.75 264.031 1435.39 262.742 1437.26 260.75C1439.25 258.758 1440.66 255.828 1441.48 251.961C1442.3 247.977 1442.71 242.527 1442.71 235.613V173.211C1442.71 164.773 1442.59 158.094 1442.36 153.172C1442.24 148.133 1441.95 144.207 1441.48 141.395C1441.13 138.582 1440.6 136.531 1439.9 135.242C1439.2 133.953 1438.38 132.781 1437.44 131.727C1436.15 131.023 1434.74 130.438 1433.22 129.969C1431.81 129.5 1430.23 129.266 1428.47 129.266C1425.31 129.266 1421.44 130.203 1416.87 132.078L1415.29 125.75L1465.21 106.414H1472.07ZM1646.91 202.039C1646.91 190.086 1645.73 178.953 1643.39 168.641C1641.05 158.328 1637.71 149.422 1633.37 141.922C1629.04 134.305 1623.76 128.328 1617.55 123.992C1611.34 119.656 1604.37 117.488 1596.63 117.488C1592.06 117.488 1587.38 118.484 1582.57 120.477C1577.88 122.469 1573.61 125.809 1569.74 130.496C1565.87 135.184 1562.71 141.453 1560.25 149.305C1557.9 157.039 1556.73 166.766 1556.73 178.484C1556.73 189.969 1557.9 200.926 1560.25 211.355C1562.71 221.785 1566.16 230.926 1570.62 238.777C1575.07 246.629 1580.4 252.898 1586.61 257.586C1592.94 262.156 1599.97 264.441 1607.71 264.441C1613.45 264.441 1618.72 263.387 1623.53 261.277C1628.45 259.051 1632.61 255.477 1636.01 250.555C1639.41 245.633 1642.04 239.188 1643.92 231.219C1645.91 223.25 1646.91 213.523 1646.91 202.039ZM1679.78 188.504C1679.78 198.934 1678.08 209.422 1674.68 219.969C1671.4 230.398 1666.42 239.891 1659.74 248.445C1653.18 257 1644.91 263.973 1634.95 269.363C1625.11 274.637 1613.57 277.273 1600.32 277.273C1589.07 277.273 1578.76 274.988 1569.39 270.418C1560.13 265.848 1552.1 259.695 1545.3 251.961C1538.62 244.227 1533.41 235.262 1529.66 225.066C1526.03 214.871 1524.21 204.207 1524.21 193.074C1524.21 182.176 1525.97 171.57 1529.48 161.258C1533.12 150.828 1538.27 141.57 1544.95 133.484C1551.75 125.398 1559.95 118.895 1569.56 113.973C1579.17 108.934 1590.01 106.414 1602.08 106.414C1613.68 106.414 1624.23 108.523 1633.72 112.742C1643.21 116.961 1651.36 122.762 1658.16 130.145C1665.07 137.527 1670.4 146.258 1674.15 156.336C1677.9 166.297 1679.78 177.02 1679.78 188.504ZM1734.73 268.66C1734.73 282.605 1733.15 294.676 1729.99 304.871C1726.82 315.066 1722.37 323.504 1716.63 330.184C1711 336.863 1704.26 341.844 1696.41 345.125C1688.68 348.406 1680.24 350.047 1671.1 350.047C1665.48 350.047 1660.73 349.461 1656.86 348.289C1652.88 347.117 1649.66 345.652 1647.19 343.895C1644.62 342.137 1642.74 340.203 1641.57 338.094C1640.28 335.984 1639.58 334.051 1639.46 332.293C1639.46 327.957 1640.93 324.324 1643.85 321.395C1646.67 318.465 1650.07 317 1654.05 317C1658.15 317 1661.67 317.938 1664.6 319.812C1667.53 321.688 1670.93 324.5 1674.79 328.25C1677.49 330.945 1680.01 332.879 1682.35 334.051C1684.81 335.223 1687.04 335.809 1689.03 335.809C1693.6 335.809 1697.47 331.941 1700.63 324.207C1703.8 316.473 1705.38 304.578 1705.38 288.523V173.914C1705.38 166.414 1705.26 160.145 1705.03 155.105C1704.91 149.949 1704.62 145.789 1704.15 142.625C1703.8 139.344 1703.27 136.883 1702.57 135.242C1701.98 133.602 1701.22 132.43 1700.28 131.727C1698.17 130.086 1695.65 129.266 1692.72 129.266C1691.08 129.266 1689.26 129.5 1687.27 129.969C1685.4 130.438 1683.11 131.141 1680.42 132.078L1678.48 125.75L1727.18 106.414H1734.73V268.66ZM1737.55 56.1406C1737.55 58.6016 1737.08 60.9453 1736.14 63.1719C1735.32 65.2812 1734.09 67.1563 1732.45 68.7969C1730.81 70.4375 1728.87 71.7852 1726.65 72.8398C1724.42 73.7773 1722.02 74.2461 1719.44 74.2461C1714.17 74.2461 1709.83 72.5469 1706.43 69.1484C1703.15 65.75 1701.51 61.4141 1701.51 56.1406C1701.51 53.6797 1701.98 51.3945 1702.92 49.2852C1703.97 47.0586 1705.32 45.125 1706.96 43.4844C1708.6 41.8438 1710.48 40.5547 1712.59 39.6172C1714.81 38.6797 1717.1 38.2109 1719.44 38.2109C1721.67 38.2109 1723.84 38.6797 1725.94 39.6172C1728.17 40.5547 1730.1 41.8438 1731.75 43.4844C1733.5 45.125 1734.91 47.0586 1735.96 49.2852C1737.02 51.3945 1737.55 53.6797 1737.55 56.1406ZM1855.26 161.609C1855.26 152.703 1853.97 145.496 1851.39 139.988C1848.81 134.363 1845.71 129.969 1842.07 126.805C1838.44 123.641 1834.63 121.473 1830.65 120.301C1826.66 119.129 1823.21 118.543 1820.28 118.543C1815.47 118.543 1810.84 119.48 1806.39 121.355C1801.94 123.23 1797.89 125.984 1794.26 129.617C1790.63 133.25 1787.58 137.762 1785.12 143.152C1782.66 148.543 1781.08 154.695 1780.37 161.609H1855.26ZM1891.99 213.113C1890.82 220.965 1888.42 228.758 1884.79 236.492C1881.27 244.109 1876.64 250.965 1870.9 257.059C1865.28 263.035 1858.65 267.898 1851.04 271.648C1843.42 275.398 1834.98 277.273 1825.73 277.273C1816.23 277.273 1807.21 275.34 1798.65 271.473C1790.1 267.488 1782.6 261.863 1776.15 254.598C1769.83 247.215 1764.79 238.367 1761.04 228.055C1757.29 217.742 1755.41 206.141 1755.41 193.25C1755.41 179.656 1757.23 167.469 1760.86 156.688C1764.61 145.906 1769.77 136.766 1776.33 129.266C1783.01 121.766 1790.92 116.023 1800.06 112.039C1809.2 108.055 1819.22 106.062 1830.12 106.062C1839.03 106.062 1847.23 107.586 1854.73 110.633C1862.35 113.562 1868.91 117.84 1874.42 123.465C1879.92 129.09 1884.2 135.945 1887.25 144.031C1890.41 152.117 1891.99 161.258 1891.99 171.453H1780.37C1780.37 183.523 1781.96 194.305 1785.12 203.797C1788.28 213.289 1792.56 221.316 1797.95 227.879C1803.34 234.441 1809.55 239.48 1816.58 242.996C1823.73 246.395 1831.23 248.094 1839.08 248.094C1844.36 248.094 1849.22 247.508 1853.67 246.336C1858.24 245.047 1862.46 242.938 1866.33 240.008C1870.2 236.961 1873.77 232.977 1877.05 228.055C1880.45 223.133 1883.56 216.98 1886.37 209.598L1891.99 213.113ZM2024.82 210.828C2023.3 220.555 2020.43 229.52 2016.21 237.723C2011.99 245.809 2006.83 252.781 2000.74 258.641C1994.76 264.5 1988.03 269.07 1980.53 272.352C1973.14 275.633 1965.53 277.273 1957.67 277.273C1948.18 277.273 1939.28 275.281 1930.95 271.297C1922.63 267.195 1915.37 261.453 1909.16 254.07C1902.95 246.57 1898.03 237.547 1894.39 227C1890.88 216.453 1889.12 204.676 1889.12 191.668C1889.12 178.895 1891.17 167.293 1895.27 156.863C1899.37 146.316 1904.88 137.352 1911.79 129.969C1918.83 122.469 1926.97 116.668 1936.23 112.566C1945.6 108.465 1955.51 106.414 1965.94 106.414C1981.99 106.414 1995.06 110.574 2005.13 118.895C2010.17 122.996 2014.04 127.215 2016.74 131.551C2019.43 135.887 2020.78 140.281 2020.78 144.734C2020.78 148.836 2019.43 152.352 2016.74 155.281C2014.04 158.211 2009.88 159.676 2004.26 159.676C2002.5 159.676 2000.56 159.5 1998.45 159.148C1996.35 158.797 1994.35 157.977 1992.48 156.688C1990.6 155.281 1988.9 153.23 1987.38 150.535C1985.97 147.723 1985.1 143.914 1984.74 139.109C1984.16 132.781 1981.93 127.684 1978.06 123.816C1974.31 119.832 1968.4 117.84 1960.31 117.84C1953.63 117.84 1947.65 119.363 1942.38 122.41C1937.11 125.34 1932.65 129.441 1929.02 134.715C1925.39 139.871 1922.63 146.023 1920.76 153.172C1918.88 160.32 1917.95 168.055 1917.95 176.375C1917.95 185.867 1919.06 195.008 1921.29 203.797C1923.63 212.586 1927.03 220.379 1931.48 227.176C1935.94 233.855 1941.38 239.188 1947.83 243.172C1954.28 247.156 1961.72 249.148 1970.15 249.148C1975.08 249.148 1979.76 248.621 1984.22 247.566C1988.79 246.395 1993.12 244.285 1997.22 241.238C2001.33 238.191 2005.25 234.031 2009 228.758C2012.87 223.367 2016.56 216.512 2020.08 208.191L2024.82 210.828ZM2112.3 242.645C2110.42 248.621 2107.9 253.777 2104.74 258.113C2101.69 262.449 2098.29 266.023 2094.54 268.836C2090.91 271.648 2087.1 273.758 2083.12 275.164C2079.25 276.57 2075.56 277.273 2072.04 277.273C2068.18 277.273 2064.37 276.746 2060.62 275.691C2056.87 274.637 2053.47 272.586 2050.42 269.539C2047.38 266.375 2044.91 262.039 2043.04 256.531C2041.16 250.906 2040.23 243.582 2040.23 234.559V122.938H2014.39V117.488C2019.31 115.73 2024.41 112.684 2029.68 108.348C2034.95 103.895 2039.88 98.9727 2044.45 93.582C2045.97 91.707 2047.38 89.8906 2048.66 88.1328C2050.07 86.2578 2051.54 84.0898 2053.06 81.6289C2054.58 79.0508 2056.22 75.9453 2057.98 72.3125C2059.74 68.5625 2061.85 63.7578 2064.31 57.8984H2069.58V110.984H2107.38V122.938H2069.58V230.34C2069.58 235.613 2069.99 240.008 2070.81 243.523C2071.63 246.922 2072.75 249.617 2074.15 251.609C2075.68 253.602 2077.38 255.008 2079.25 255.828C2081.24 256.648 2083.35 257.059 2085.58 257.059C2089.91 257.059 2093.72 255.828 2097 253.367C2100.4 250.789 2103.16 247.215 2105.27 242.645H2112.3Z" fill="#B24D2E"/>
</svg>
