<?xml version="1.0" encoding="UTF-8"?>
<svg fill="none" viewBox="0 0 2113 351" xmlns="http://www.w3.org/2000/svg">
<path d="m120.64 96.394 2.812 58.184h-5.976c-1.758-4.101-4.043-8.73-6.856-13.887-2.695-5.156-5.976-10.019-9.843-14.589-3.8676-4.571-8.3793-8.379-13.536-11.426-5.0391-3.164-10.723-4.746-17.051-4.746-5.625 0-10.02 1.523-13.184 4.57-3.1641 3.047-4.7461 6.973-4.7461 11.777 0 4.219 1.9922 8.379 5.9765 12.481 3.9844 3.984 8.9063 8.086 14.766 12.304 5.9765 4.219 12.422 8.672 19.336 13.36 7.0313 4.687 13.477 9.785 19.336 15.293 5.977 5.39 10.957 11.308 14.941 17.754 3.985 6.445 5.977 13.535 5.977 21.269 0 8.555-1.406 16.407-4.219 23.555-2.812 7.148-6.738 13.359-11.777 18.633-4.922 5.156-10.84 9.199-17.754 12.129-6.7969 2.929-14.18 4.394-22.148 4.394-4.1016 0-8.1446-0.527-12.129-1.582-3.9844-0.937-7.793-2.051-11.426-3.34-3.6328-1.172-6.9141-2.285-9.8438-3.339-2.9296-1.055-5.332-1.583-7.207-1.583-2.5781 0-4.5703 0.938-5.9766 2.813-1.4062 1.758-2.6367 3.75-3.6914 5.977h-6.1523l-2.9883-61.348h6.5039c1.5235 6.211 3.9844 12.246 7.3828 18.105 3.3985 5.86 7.3243 11.016 11.777 15.469 4.5703 4.453 9.4922 8.027 14.766 10.723 5.2734 2.695 10.547 4.043 15.82 4.043 5.3906 0 10.02-1.699 13.887-5.098 3.8672-3.516 5.8008-8.789 5.8008-15.82 0-4.688-1.9336-9.024-5.8008-13.008-3.8672-4.102-8.6718-8.203-14.414-12.305-5.7422-4.101-12.012-8.379-18.809-12.832s-13.066-9.375-18.809-14.765c-5.7422-5.391-10.547-11.426-14.414-18.106s-5.8008-14.297-5.8008-22.851c0-8.204 1.3477-15.528 4.043-21.973 2.6953-6.563 6.3867-12.07 11.074-16.524 4.8047-4.57 10.43-8.027 16.875-10.371 6.4453-2.461 13.418-3.6914 20.918-3.6914 4.8047 0 8.9648 0.5273 12.48 1.582 3.5156 0.9375 6.5625 1.9922 9.1406 3.164 2.6953 1.055 5.0391 2.109 7.0312 3.164 2.1094 0.938 4.1014 1.406 5.9764 1.406 3.399 0 5.918-0.996 7.559-2.988 1.758-1.992 3.164-3.9843 4.219-5.9765h6.152zm173.96 90.352c0 11.836-1.816 23.203-5.449 34.102-3.516 10.898-8.731 20.566-15.645 29.004-6.797 8.32-15.175 15-25.136 20.039s-21.329 7.558-34.102 7.558-24.141-2.519-34.102-7.558c-9.843-5.039-18.222-11.719-25.136-20.039-6.797-8.438-12.012-18.106-15.645-29.004-3.515-10.899-5.273-22.266-5.273-34.102s1.758-23.203 5.273-34.101c3.633-10.899 8.848-20.508 15.645-28.829 6.914-8.437 15.293-15.175 25.136-20.214 9.961-5.0395 21.329-7.559 34.102-7.559s24.141 2.5195 34.102 7.559c9.961 5.039 18.339 11.777 25.136 20.214 6.914 8.321 12.129 17.93 15.645 28.829 3.633 10.898 5.449 22.265 5.449 34.101zm-53.613 0c0-14.062-0.528-26.016-1.582-35.859-0.938-9.844-2.52-17.871-4.746-24.082-2.11-6.328-4.864-10.899-8.262-13.711-3.399-2.813-7.441-4.219-12.129-4.219-4.687 0-8.73 1.406-12.129 4.219-3.281 2.812-6.035 7.383-8.262 13.711-2.109 6.211-3.691 14.238-4.746 24.082-0.937 9.843-1.406 21.797-1.406 35.859 0 14.063 0.469 26.016 1.406 35.859 1.055 9.844 2.637 17.872 4.746 24.083 2.227 6.21 4.981 10.722 8.262 13.535 3.399 2.812 7.442 4.218 12.129 4.218 4.688 0 8.73-1.406 12.129-4.218 3.398-2.813 6.152-7.325 8.262-13.535 2.226-6.211 3.808-14.239 4.746-24.083 1.054-9.843 1.582-21.796 1.582-35.859zm152.87 85.254v-6.855c3.399-0.469 6.211-1.29 8.438-2.461 2.226-1.172 3.925-2.754 5.097-4.746 1.289-1.993 2.168-4.571 2.637-7.735s0.703-7.031 0.703-11.601v-94.043c0-7.032-1.289-12.715-3.867-17.051-2.461-4.453-6.68-6.68-12.656-6.68-3.399 0-6.504 0.703-9.317 2.11-2.812 1.406-5.449 3.222-7.91 5.449-2.344 2.109-4.512 4.57-6.504 7.383-1.992 2.695-3.808 5.39-5.449 8.085v94.747c0 4.57 0.234 8.437 0.703 11.601s1.348 5.742 2.637 7.735c1.289 1.992 3.047 3.574 5.273 4.746 2.227 1.171 5.098 1.992 8.614 2.461v6.855h-86.661v-6.855c3.985-0.469 7.207-1.114 9.668-1.934 2.461-0.938 4.278-2.344 5.45-4.219 1.289-1.875 2.109-4.453 2.461-7.734 0.468-3.281 0.703-7.5 0.703-12.656v-102.3c0-5.742-0.235-10.371-0.703-13.887-0.469-3.515-1.348-6.269-2.637-8.262-1.289-1.992-3.164-3.398-5.625-4.218-2.344-0.821-5.449-1.524-9.317-2.11v-6.504h69.434v21.973c2.695-2.812 5.742-5.801 9.141-8.965 3.398-3.281 7.148-6.269 11.25-8.965 4.218-2.695 8.73-4.921 13.535-6.6793 4.805-1.7578 9.961-2.6367 15.469-2.6367 8.086 0 15.117 1.4062 21.093 4.219 5.977 2.695 10.899 6.621 14.766 11.777s6.738 11.426 8.613 18.809c1.992 7.265 2.989 15.41 2.989 24.433v83.321c0 4.57 0.175 8.437 0.527 11.601 0.351 3.164 1.113 5.801 2.285 7.91 1.289 1.992 3.164 3.575 5.625 4.746 2.461 1.055 5.742 1.817 9.844 2.286v6.855h-86.309zm245.86-85.254c0 11.836-1.817 23.203-5.449 34.102-3.516 10.898-8.731 20.566-15.645 29.004-6.797 8.32-15.176 15-25.137 20.039s-21.328 7.558-34.101 7.558c-12.774 0-24.141-2.519-34.102-7.558-9.843-5.039-18.222-11.719-25.136-20.039-6.797-8.438-12.012-18.106-15.645-29.004-3.516-10.899-5.273-22.266-5.273-34.102s1.757-23.203 5.273-34.101c3.633-10.899 8.848-20.508 15.645-28.829 6.914-8.437 15.293-15.175 25.136-20.214 9.961-5.0395 21.328-7.559 34.102-7.559 12.773 0 24.14 2.5195 34.101 7.559 9.961 5.039 18.34 11.777 25.137 20.214 6.914 8.321 12.129 17.93 15.645 28.829 3.632 10.898 5.449 22.265 5.449 34.101zm-53.613 0c0-14.062-0.528-26.016-1.582-35.859-0.938-9.844-2.52-17.871-4.747-24.082-2.109-6.328-4.863-10.899-8.261-13.711-3.399-2.813-7.442-4.219-12.129-4.219-4.688 0-8.731 1.406-12.129 4.219-3.281 2.812-6.035 7.383-8.262 13.711-2.109 6.211-3.691 14.238-4.746 24.082-0.937 9.843-1.406 21.797-1.406 35.859 0 14.063 0.469 26.016 1.406 35.859 1.055 9.844 2.637 17.872 4.746 24.083 2.227 6.21 4.981 10.722 8.262 13.535 3.398 2.812 7.441 4.218 12.129 4.218 4.687 0 8.73-1.406 12.129-4.218 3.398-2.813 6.152-7.325 8.261-13.535 2.227-6.211 3.809-14.239 4.747-24.083 1.054-9.843 1.582-21.796 1.582-35.859zm125.44-85.43v38.496c3.281-4.921 6.738-9.96 10.371-15.117 3.75-5.156 7.793-9.843 12.129-14.062 4.453-4.336 9.317-7.852 14.59-10.547 5.273-2.6954 11.133-4.043 17.578-4.043 7.383 0 12.949 2.4023 16.699 7.207 3.75 4.688 5.625 10.547 5.625 17.578 0 3.516-0.468 6.797-1.406 9.844-0.937 3.047-2.285 5.742-4.043 8.086-1.758 2.226-3.926 3.984-6.504 5.273-2.461 1.289-5.273 1.934-8.437 1.934-4.219 0-7.735-0.762-10.547-2.285-2.813-1.524-5.215-3.164-7.207-4.922s-3.867-3.399-5.625-4.922c-1.758-1.524-3.692-2.285-5.801-2.285-4.219 0-8.027 1.816-11.426 5.449-3.398 3.516-6.328 8.145-8.789 13.887-2.344 5.625-4.16 11.953-5.449 18.984-1.172 7.031-1.758 13.945-1.758 20.742v47.989c0 4.57 0.117 8.496 0.352 11.777 0.234 3.281 1.054 5.976 2.461 8.086 1.406 2.109 3.574 3.75 6.504 4.922 3.046 1.054 7.382 1.64 13.007 1.758v6.855h-92.109v-6.855c3.984-0.118 7.207-0.704 9.668-1.758 2.461-1.172 4.336-2.813 5.625-4.922 1.406-2.11 2.285-4.805 2.637-8.086 0.468-3.281 0.703-7.207 0.703-11.777v-102.3c0-5.742-0.176-10.371-0.528-13.887-0.351-3.515-1.171-6.269-2.461-8.262-1.289-1.992-3.164-3.398-5.625-4.218-2.46-0.821-5.8-1.524-10.019-2.11v-6.504h69.785zm184.33 170.68v-21.973c-2.695 2.93-5.8 6.035-9.316 9.317-3.398 3.164-7.148 6.094-11.25 8.789s-8.555 4.922-13.359 6.679c-4.805 1.758-9.961 2.637-15.469 2.637-8.086 0-15.117-1.406-21.094-4.219-5.976-2.695-10.898-6.621-14.766-11.777-3.867-5.156-6.796-11.367-8.789-18.633-1.875-7.382-2.812-15.644-2.812-24.785v-83.144c0-4.571-0.176-8.438-0.527-11.602-0.352-3.281-1.172-5.918-2.461-7.91-1.172-2.109-2.989-3.691-5.45-4.746-2.461-1.172-5.742-1.992-9.843-2.461v-6.856h69.433v127.44c0 7.031 1.231 12.773 3.692 17.226 2.578 4.336 6.855 6.504 12.832 6.504 3.281 0 6.328-0.703 9.14-2.109 2.93-1.524 5.567-3.399 7.91-5.625 2.461-2.344 4.688-4.922 6.68-7.734 1.992-2.813 3.809-5.567 5.449-8.262v-93.867c0-4.571-0.234-8.438-0.703-11.602s-1.406-5.742-2.812-7.734c-1.289-1.993-3.164-3.575-5.625-4.746-2.461-1.172-5.684-2.051-9.668-2.637v-6.856h69.961v135.7c0 5.742 0.234 10.371 0.703 13.886 0.469 3.399 1.347 6.094 2.637 8.086 1.289 1.875 3.105 3.281 5.449 4.219 2.461 0.82 5.625 1.465 9.492 1.934v6.855h-69.434zm271.87 0v-6.855c3.05-0.469 5.63-1.29 7.74-2.461 2.1-1.172 3.8-2.754 5.09-4.746 1.41-1.993 2.41-4.571 2.99-7.735 0.7-3.164 1.06-7.031 1.06-11.601v-94.043c0-7.032-1.29-12.832-3.87-17.403-2.58-4.687-6.8-7.031-12.66-7.031-3.4 0-6.62 0.645-9.67 1.934-3.04 1.289-5.97 2.988-8.78 5.097-2.7 2.11-5.28 4.571-7.74 7.383-2.34 2.813-4.45 5.684-6.33 8.613v95.45c0 4.804 0.24 8.847 0.71 12.128 0.46 3.165 1.34 5.743 2.63 7.735 1.41 1.992 3.34 3.515 5.8 4.57 2.58 0.938 5.92 1.641 10.02 2.11v6.855h-88.59v-6.855c3.63-0.469 6.62-1.172 8.96-2.11 2.46-0.937 4.4-2.344 5.8-4.219 1.41-1.992 2.35-4.57 2.82-7.734 0.58-3.281 0.88-7.441 0.88-12.48v-94.043c0-7.032-1.47-12.891-4.4-17.579-2.93-4.804-7.03-7.207-12.3-7.207-6.57 0-12.37 2.11-17.41 6.329-5.03 4.218-10.13 10.019-15.29 17.402v95.098c0 4.57 0.18 8.437 0.53 11.601 0.47 3.164 1.35 5.801 2.64 7.91 1.28 1.992 3.1 3.575 5.44 4.746 2.47 1.055 5.75 1.817 9.85 2.286v6.855h-87.892v-6.855c3.984-0.469 7.207-1.114 9.668-1.934 2.461-0.938 4.277-2.344 5.449-4.219 1.289-1.875 2.11-4.453 2.461-7.734 0.469-3.281 0.703-7.5 0.703-12.656v-102.3c0-5.742-0.234-10.371-0.703-13.887-0.469-3.515-1.348-6.269-2.637-8.262-1.289-1.992-3.164-3.398-5.625-4.218-2.343-0.821-5.449-1.524-9.316-2.11v-6.504h69.432v22.676c4.45-4.804 8.67-8.965 12.66-12.48 4.1-3.516 8.2-6.387 12.3-8.614 4.1-2.343 8.38-4.0425 12.83-5.0972 4.57-1.1719 9.61-1.7578 15.12-1.7578 6.45 0 12.07 0.8203 16.88 2.4609 4.92 1.5231 9.14 3.6911 12.65 6.5041 3.52 2.812 6.45 6.152 8.79 10.019 2.35 3.75 4.34 7.852 5.98 12.305 7.73-9.258 16.23-16.758 25.49-22.5 9.25-5.8593 19.33-8.789 30.23-8.789 8.44 0 15.65 1.4062 21.62 4.219 6.1 2.695 11.08 6.621 14.94 11.777 3.87 5.156 6.68 11.426 8.44 18.809 1.76 7.265 2.64 15.41 2.64 24.433v83.321c0 4.57 0.17 8.437 0.53 11.601 0.35 3.164 1.11 5.801 2.28 7.91 1.29 1.992 3.16 3.575 5.63 4.746 2.46 1.055 5.74 1.817 9.84 2.286v6.855h-86.31zm144.78-120.23c6.09 0.937 11.54 1.523 16.35 1.757 4.8 0.235 8.91 0.352 12.3 0.352 6.1 0 11.9-1.172 17.41-3.516 5.5-2.461 10.25-5.918 14.23-10.371 4.11-4.453 7.33-9.785 9.67-15.996 2.46-6.211 3.69-13.183 3.69-20.918 0-7.2654-1.05-14.238-3.16-20.918-2.11-6.7968-5.27-12.715-9.49-17.754-4.22-5.1562-9.49-9.2578-15.82-12.305-6.33-3.0469-13.71-4.5704-22.15-4.5704-2.81 0-6.15 0.3516-10.02 1.0547-3.75 0.586-8.09 1.3477-13.01 2.2852v100.9zm34.28 120.23h-101.78v-6.68h8.61c4.93 0 9.2-0.703 12.84-2.109 3.75-1.523 6.62-3.984 8.61-7.383 1.05-1.758 1.87-4.805 2.46-9.14 0.7-4.336 1.06-10.02 1.06-17.051v-153.98c0-7.3828-0.36-13.418-1.06-18.105s-1.87-8.0274-3.51-10.02c-4.22-5.039-11.02-7.5585-20.4-7.5585h-8.61v-6.3282h86.84c6.09 0 12.18 0.2344 18.28 0.7032 6.21 0.3515 12.24 1.0546 18.1 2.1093s11.37 2.5782 16.53 4.5703c5.27 1.875 10.02 4.3946 14.24 7.5586 3.86 2.8125 7.44 5.918 10.72 9.3164 3.4 3.2813 6.33 6.9727 8.79 11.074 2.46 4.1015 4.39 8.6718 5.8 13.711 1.4 5.0391 2.11 10.606 2.11 16.699 0 9.1402-1.41 17.695-4.22 25.664s-7.5 14.941-14.06 20.918c-6.45 5.976-15 10.723-25.67 14.238-10.66 3.399-23.85 5.098-39.55 5.098h-7.73c-2.23-0.117-4.46-0.235-6.68-0.352-2.23-0.117-4.63-0.293-7.21-0.527-2.46-0.234-5.39-0.527-8.79-0.879v66.094c0 7.5 0.35 13.535 1.06 18.105 0.82 4.57 2.16 7.793 4.04 9.668 2.46 2.461 5.33 4.395 8.61 5.801s7.15 2.109 11.6 2.109h8.97v6.68zm125.27-165.59v36.035c13.36-24.023 27.24-36.035 41.66-36.035 3.16 0 6.15 0.469 8.96 1.406 2.81 0.938 5.22 2.285 7.21 4.043 2.11 1.641 3.75 3.692 4.92 6.153 1.17 2.343 1.76 4.922 1.76 7.734 0 2.109-0.41 4.16-1.23 6.152-0.82 1.993-1.99 3.75-3.52 5.274-1.4 1.406-3.1 2.578-5.09 3.515-1.88 0.938-3.93 1.407-6.16 1.407-2.93 0-5.56-0.645-7.91-1.934-2.22-1.289-4.27-2.695-6.15-4.219-1.87-1.64-3.69-3.105-5.45-4.394s-3.57-1.934-5.45-1.934c-2.93 0-6.5 2.461-10.72 7.383-4.1 4.805-8.38 11.484-12.83 20.039v77.52c0 5.156 0.41 9.668 1.23 13.535 0.82 3.75 2.28 6.914 4.39 9.492s4.98 4.512 8.62 5.801c3.75 1.289 8.49 1.933 14.23 1.933v6.68h-83.67v-6.68c5.04 0 9.2-0.234 12.48-0.703 3.4-0.586 6.04-1.875 7.91-3.867 1.99-1.992 3.4-4.922 4.22-8.789 0.82-3.984 1.23-9.434 1.23-16.348v-62.402c0-8.438-0.12-15.117-0.35-20.039-0.12-5.039-0.41-8.965-0.88-11.777-0.35-2.813-0.88-4.864-1.58-6.153s-1.52-2.461-2.46-3.515c-1.29-0.704-2.7-1.289-4.22-1.758-1.41-0.469-2.99-0.703-4.75-0.703-3.16 0-7.03 0.937-11.6 2.812l-1.58-6.328 49.92-19.336h6.86zm174.84 95.625c0-11.953-1.18-23.086-3.52-33.398-2.34-10.313-5.68-19.219-10.02-26.719-4.33-7.617-9.61-13.594-15.82-17.93s-13.18-6.504-20.92-6.504c-4.57 0-9.25 0.996-14.06 2.989-4.69 1.992-8.96 5.332-12.83 10.019-3.87 4.688-7.03 10.957-9.49 18.809-2.35 7.734-3.52 17.461-3.52 29.179 0 11.485 1.17 22.442 3.52 32.871 2.46 10.43 5.91 19.571 10.37 27.422 4.45 7.852 9.78 14.121 15.99 18.809 6.33 4.57 13.36 6.855 21.1 6.855 5.74 0 11.01-1.054 15.82-3.164 4.92-2.226 9.08-5.8 12.48-10.722s6.03-11.367 7.91-19.336c1.99-7.969 2.99-17.696 2.99-29.18zm32.87-13.535c0 10.43-1.7 20.918-5.1 31.465-3.28 10.429-8.26 19.922-14.94 28.476-6.56 8.555-14.83 15.528-24.79 20.918-9.84 5.274-21.38 7.91-34.63 7.91-11.25 0-21.56-2.285-30.93-6.855-9.26-4.57-17.29-10.723-24.09-18.457-6.68-7.734-11.89-16.699-15.64-26.895-3.63-10.195-5.45-20.859-5.45-31.992 0-10.898 1.76-21.504 5.27-31.816 3.64-10.43 8.79-19.688 15.47-27.774 6.8-8.086 15-14.589 24.61-19.511 9.61-5.039 20.45-7.559 32.52-7.559 11.6 0 22.15 2.109 31.64 6.328s17.64 10.02 24.44 17.403c6.91 7.382 12.24 16.113 15.99 26.191 3.75 9.961 5.63 20.684 5.63 32.168zm54.95 80.156c0 13.945-1.58 26.016-4.74 36.211-3.17 10.195-7.62 18.633-13.36 25.313-5.63 6.679-12.37 11.66-20.22 14.941-7.73 3.281-16.17 4.922-25.31 4.922-5.62 0-10.37-0.586-14.24-1.758-3.98-1.172-7.2-2.637-9.67-4.394-2.57-1.758-4.45-3.692-5.62-5.801-1.29-2.11-1.99-4.043-2.11-5.801 0-4.336 1.47-7.969 4.39-10.898 2.82-2.93 6.22-4.395 10.2-4.395 4.1 0 7.62 0.938 10.55 2.812 2.93 1.876 6.33 4.688 10.19 8.438 2.7 2.695 5.22 4.629 7.56 5.801 2.46 1.172 4.69 1.758 6.68 1.758 4.57 0 8.44-3.868 11.6-11.602 3.17-7.734 4.75-19.629 4.75-35.684v-114.61c0-7.5-0.12-13.769-0.35-18.809-0.12-5.156-0.41-9.316-0.88-12.48-0.35-3.281-0.88-5.742-1.58-7.383-0.59-1.64-1.35-2.812-2.29-3.515-2.11-1.641-4.63-2.461-7.56-2.461-1.64 0-3.46 0.234-5.45 0.703-1.87 0.469-4.16 1.172-6.85 2.109l-1.94-6.328 48.7-19.336h7.55v162.25zm2.82-212.52c0 2.461-0.47 4.8047-1.41 7.0313-0.82 2.1093-2.05 3.9844-3.69 5.625s-3.58 2.9883-5.8 4.0429c-2.23 0.9375-4.63 1.4063-7.21 1.4063-5.27 0-9.61-1.6992-13.01-5.0977-3.28-3.3984-4.92-7.7343-4.92-13.008 0-2.4609 0.47-4.7461 1.41-6.8554 1.05-2.2266 2.4-4.1602 4.04-5.8008s3.52-2.9297 5.63-3.8672c2.22-0.9375 4.51-1.4063 6.85-1.4063 2.23 0 4.4 0.4688 6.5 1.4063 2.23 0.9375 4.16 2.2266 5.81 3.8672 1.75 1.6406 3.16 3.5742 4.21 5.8008 1.06 2.1093 1.59 4.3945 1.59 6.8554zm117.71 105.47c0-8.906-1.29-16.113-3.87-21.621-2.58-5.625-5.68-10.019-9.32-13.183-3.63-3.164-7.44-5.332-11.42-6.504-3.99-1.172-7.44-1.758-10.37-1.758-4.81 0-9.44 0.937-13.89 2.812s-8.5 4.629-12.13 8.262-6.68 8.145-9.14 13.535c-2.46 5.391-4.04 11.543-4.75 18.457h74.89zm36.73 51.504c-1.17 7.852-3.57 15.645-7.2 23.379-3.52 7.617-8.15 14.473-13.89 20.567-5.62 5.976-12.25 10.839-19.86 14.589-7.62 3.75-16.06 5.625-25.31 5.625-9.5 0-18.52-1.933-27.08-5.8-8.55-3.985-16.05-9.61-22.5-16.875-6.32-7.383-11.36-16.231-15.11-26.543-3.75-10.313-5.63-21.914-5.63-34.805 0-13.594 1.82-25.781 5.45-36.562 3.75-10.782 8.91-19.922 15.47-27.422 6.68-7.5 14.59-13.243 23.73-17.227s19.16-5.977 30.06-5.977c8.91 0 17.11 1.524 24.61 4.571 7.62 2.929 14.18 7.207 19.69 12.832 5.5 5.625 9.78 12.48 12.83 20.566 3.16 8.086 4.74 17.227 4.74 27.422h-111.62c0 12.07 1.59 22.852 4.75 32.344s7.44 17.519 12.83 24.082c5.39 6.562 11.6 11.601 18.63 15.117 7.15 3.399 14.65 5.098 22.5 5.098 5.28 0 10.14-0.586 14.59-1.758 4.57-1.289 8.79-3.398 12.66-6.328 3.87-3.047 7.44-7.031 10.72-11.953 3.4-4.922 6.51-11.075 9.32-18.457l5.62 3.515zm132.83-2.285c-1.52 9.727-4.39 18.692-8.61 26.895-4.22 8.086-9.38 15.058-15.47 20.918-5.98 5.859-12.71 10.429-20.21 13.711-7.39 3.281-15 4.921-22.86 4.921-9.49 0-18.39-1.992-26.72-5.976-8.32-4.102-15.58-9.844-21.79-17.227-6.21-7.5-11.13-16.523-14.77-27.07-3.51-10.547-5.27-22.324-5.27-35.332 0-12.773 2.05-24.375 6.15-34.805 4.1-10.547 9.61-19.511 16.52-26.894 7.04-7.5 15.18-13.301 24.44-17.403 9.37-4.101 19.28-6.152 29.71-6.152 16.05 0 29.12 4.16 39.19 12.481 5.04 4.101 8.91 8.32 11.61 12.656 2.69 4.336 4.04 8.73 4.04 13.183 0 4.102-1.35 7.618-4.04 10.547-2.7 2.93-6.86 4.395-12.48 4.395-1.76 0-3.7-0.176-5.81-0.528-2.1-0.351-4.1-1.171-5.97-2.46-1.88-1.407-3.58-3.458-5.1-6.153-1.41-2.812-2.28-6.621-2.64-11.426-0.58-6.328-2.81-11.425-6.68-15.293-3.75-3.984-9.66-5.976-17.75-5.976-6.68 0-12.66 1.523-17.93 4.57-5.27 2.93-9.73 7.031-13.36 12.305-3.63 5.156-6.39 11.308-8.26 18.457-1.88 7.148-2.81 14.883-2.81 23.203 0 9.492 1.11 18.633 3.34 27.422 2.34 8.789 5.74 16.582 10.19 23.379 4.46 6.679 9.9 12.012 16.35 15.996s13.89 5.976 22.32 5.976c4.93 0 9.61-0.527 14.07-1.582 4.57-1.171 8.9-3.281 13-6.328 4.11-3.047 8.03-7.207 11.78-12.48 3.87-5.391 7.56-12.246 11.08-20.567l4.74 2.637zm87.48 31.817c-1.88 5.976-4.4 11.132-7.56 15.468-3.05 4.336-6.45 7.91-10.2 10.723-3.63 2.812-7.44 4.922-11.42 6.328-3.87 1.406-7.56 2.109-11.08 2.109-3.86 0-7.67-0.527-11.42-1.582-3.75-1.054-7.15-3.105-10.2-6.152-3.04-3.164-5.51-7.5-7.38-13.008-1.88-5.625-2.81-12.949-2.81-21.972v-111.62h-25.84v-5.45c4.92-1.758 10.02-4.804 15.29-9.14 5.27-4.453 10.2-9.3753 14.77-14.766 1.52-1.875 2.93-3.6914 4.21-5.4492 1.41-1.875 2.88-4.043 4.4-6.5039 1.52-2.5781 3.16-5.6836 4.92-9.3164 1.76-3.75 3.87-8.5547 6.33-14.414h5.27v53.086h37.8v11.954h-37.8v107.4c0 5.273 0.41 9.668 1.23 13.183 0.82 3.399 1.94 6.094 3.34 8.086 1.53 1.993 3.23 3.399 5.1 4.219 1.99 0.82 4.1 1.231 6.33 1.231 4.33 0 8.14-1.231 11.42-3.692 3.4-2.578 6.16-6.152 8.27-10.722h7.03z" fill="#B24D2E"/>
</svg>
